<?xml version="1.0" encoding="utf-8"?>
<!-- Generator: Adobe Illustrator 19.0.0, SVG Export Plug-In . SVG Version: 6.00 Build 0)  -->
<svg version="1.1" id="Layer_1" xmlns="http://www.w3.org/2000/svg" xmlns:xlink="http://www.w3.org/1999/xlink" x="0px" y="0px"
	 viewBox="0 0 205.8 207" style="enable-background:new 0 0 205.8 207;" xml:space="preserve">
<style type="text/css">
	.st0{fill:#EEEFF4;stroke:#5A5B5B;stroke-width:3;stroke-miterlimit:10;}
	.st1{fill:#82BAB7;stroke:#373D3F;stroke-width:4;stroke-miterlimit:10;}
	.st2{fill:#A1D3CF;}
	.st3{fill:#FFFFFF;stroke:#373D3F;stroke-width:3;stroke-miterlimit:10;}
	.st4{fill:#F1C051;}
	.st5{fill:#C2C6C6;}
	.st6{fill:#364349;stroke:#373D3F;stroke-width:3;stroke-miterlimit:10;}
</style>
<g id="XMLID_56_">
	<circle id="XMLID_54_" class="st0" cx="102.2" cy="104.3" r="100.7"/>
	<g id="XMLID_1_">
		<circle id="XMLID_46_" class="st1" cx="103.2" cy="104.3" r="100.7"/>
		<circle id="XMLID_47_" class="st2" cx="104.2" cy="104.3" r="92.7"/>
	</g>
</g>
<path id="XMLID_59_" class="st3" d="M173.8,177.5H40.5c-3.3,0-6-2.7-6-6V7.5c0-3.3,2.7-6,6-6h133.3c3.3,0,6,2.7,6,6v164
	C179.8,174.8,177.1,177.5,173.8,177.5z"/>
<path id="XMLID_81_" class="st4" d="M129.8,50H86.5c-2,0-3.7-1.7-3.7-3.7V22.7c0-2,1.6-3.7,3.7-3.7h43.3c2,0,3.7,1.6,3.7,3.7v23.7
	C133.5,48.3,131.9,50,129.8,50z"/>
<path id="XMLID_79_" class="st5" d="M158.2,69.9H54c-1.2,0-2.2-1-2.2-2.2l0,0c0-1.2,1-2.2,2.2-2.2h104.2c1.2,0,2.2,1,2.2,2.2l0,0
	C160.4,68.9,159.4,69.9,158.2,69.9z"/>
<path id="XMLID_67_" class="st5" d="M158.2,89.6H54c-1.2,0-2.2-1-2.2-2.2v0c0-1.2,1-2.2,2.2-2.2h104.2c1.2,0,2.2,1,2.2,2.2v0
	C160.4,88.6,159.4,89.6,158.2,89.6z"/>
<path id="XMLID_65_" class="st5" d="M159.9,109H55.7c-1.2,0-2.2-1-2.2-2.2v0c0-1.2,1-2.2,2.2-2.2h104.2c1.2,0,2.2,1,2.2,2.2v0
	C162.1,108,161.1,109,159.9,109z"/>
<path id="XMLID_37_" class="st6" d="M183.7,188.5H27.6c-1.3,0-2.3-1-2.3-2.3V88.6c0-1.8,2-2.9,3.5-2l156.1,97.6
	C186.9,185.5,186,188.5,183.7,188.5z"/>
<path id="XMLID_49_" class="st6" d="M27.6,188.1h156.1c1.3,0,2.3-1,2.3-2.3V88.2c0-1.8-2-2.9-3.5-2L26.4,183.8
	C24.4,185.1,25.3,188.1,27.6,188.1z"/>
</svg>
