<?xml version="1.0" encoding="utf-8"?>
<!-- Generator: Adobe Illustrator 19.0.0, SVG Export Plug-In . SVG Version: 6.00 Build 0)  -->
<svg version="1.1" id="Layer_1" xmlns="http://www.w3.org/2000/svg" xmlns:xlink="http://www.w3.org/1999/xlink" x="0px" y="0px"
	 viewBox="0 0 205.3 221" style="enable-background:new 0 0 205.3 221;" xml:space="preserve">
<style type="text/css">
	.st0{fill:#EEEFF4;stroke:#5A5B5B;stroke-width:3;stroke-miterlimit:10;}
	.st1{fill:#82BAB7;stroke:#373D3F;stroke-width:4;stroke-miterlimit:10;}
	.st2{fill:#A1D3CF;}
	.st3{fill:#FFFFFF;stroke:#373D3F;stroke-width:3;stroke-miterlimit:10;}
	.st4{fill:#F1C051;}
	.st5{fill:#C2C6C6;}
	.st6{fill:#364349;stroke:#373D3F;stroke-width:3;stroke-miterlimit:10;}
	.st7{fill:#82BAB7;stroke:#373D3F;stroke-width:3;stroke-miterlimit:10;}
	.st8{fill:none;stroke:#373D3F;stroke-width:3;stroke-miterlimit:10;}
</style>
<g id="XMLID_115_">
	<circle id="XMLID_116_" class="st0" cx="102.7" cy="118.3" r="100.7"/>
	<circle id="XMLID_46_" class="st1" cx="102.7" cy="118.3" r="100.7"/>
	<circle id="XMLID_47_" class="st2" cx="103.7" cy="118.3" r="92.7"/>
</g>
<path id="XMLID_114_" class="st3" d="M174.3,191.5H41c-3.3,0-6-2.7-6-6v-164c0-3.3,2.7-6,6-6h133.3c3.3,0,6,2.7,6,6v164
	C180.3,188.8,177.6,191.5,174.3,191.5z"/>
<path id="XMLID_113_" class="st4" d="M130.3,64H87c-2,0-3.7-1.7-3.7-3.7V36.7c0-2,1.6-3.7,3.7-3.7h43.3c2,0,3.7,1.7,3.7,3.7v23.7
	C134,62.3,132.4,64,130.3,64z"/>
<path id="XMLID_112_" class="st5" d="M158.7,83.9H54.5c-1.2,0-2.2-1-2.2-2.2l0,0c0-1.2,1-2.2,2.2-2.2h104.2c1.2,0,2.2,1,2.2,2.2l0,0
	C160.9,82.9,159.9,83.9,158.7,83.9z"/>
<path id="XMLID_111_" class="st5" d="M158.7,103.6H54.5c-1.2,0-2.2-1-2.2-2.2v0c0-1.2,1-2.2,2.2-2.2h104.2c1.2,0,2.2,1,2.2,2.2v0
	C160.9,102.6,159.9,103.6,158.7,103.6z"/>
<path id="XMLID_110_" class="st5" d="M160.4,123H56.2c-1.2,0-2.2-1-2.2-2.2v0c0-1.2,1-2.2,2.2-2.2h104.2c1.2,0,2.2,1,2.2,2.2v0
	C162.6,122,161.6,123,160.4,123z"/>
<path id="XMLID_109_" class="st6" d="M184.2,202.5H28.1c-1.3,0-2.3-1-2.3-2.3v-97.6c0-1.8,2-2.9,3.5-2l156.1,97.6
	C187.4,199.5,186.5,202.5,184.2,202.5z"/>
<path id="XMLID_105_" class="st6" d="M28.1,202.1h156.1c1.3,0,2.3-1,2.3-2.3v-97.6c0-1.8-2-2.9-3.5-2L26.9,197.8
	C24.9,199.1,25.8,202.1,28.1,202.1z"/>
<circle id="XMLID_131_" class="st7" cx="168.5" cy="26.5" r="25"/>
<polyline id="XMLID_132_" class="st8" points="156.5,29.3 163.4,37.5 182,16 "/>
</svg>
