<?xml version="1.0" encoding="utf-8"?>
<!-- Generator: Adobe Illustrator 19.0.0, SVG Export Plug-In . SVG Version: 6.00 Build 0)  -->
<svg version="1.1" id="Layer_1" xmlns="http://www.w3.org/2000/svg" xmlns:xlink="http://www.w3.org/1999/xlink" x="0px" y="0px"
	 viewBox="0 0 206.3 233.5" style="enable-background:new 0 0 206.3 233.5;" xml:space="preserve">
<style type="text/css">
	.st0{fill:#FFFFFF;stroke:#373D3F;stroke-width:3;stroke-miterlimit:10;}
	.st1{fill:#EEEFF4;stroke:#5A5B5B;stroke-width:3;stroke-miterlimit:10;}
	.st2{fill:#82BAB7;stroke:#373D3F;stroke-width:4;stroke-miterlimit:10;}
	.st3{fill:#A1D3CF;}
	.st4{fill:#FEFFFD;stroke:#373D3F;stroke-width:3;stroke-miterlimit:10;}
	.st5{fill:#FFFFFD;stroke:#373D3F;stroke-width:3;stroke-miterlimit:10;}
	.st6{fill:#AEACB9;}
</style>
<path id="XMLID_130_" class="st0" d="M156.8,25.5h-28.5c-0.7,0-1.3-0.6-1.3-1.3V2.8c0-0.7,0.6-1.3,1.3-1.3h28.5
	c0.7,0,1.3,0.6,1.3,1.3v21.5C158,24.9,157.4,25.5,156.8,25.5z"/>
<g id="XMLID_117_">
	<circle id="XMLID_118_" class="st1" cx="102.2" cy="127.3" r="100.7"/>
</g>
<g id="XMLID_1_">
	<circle id="XMLID_46_" class="st2" cx="103.7" cy="127.7" r="100.7"/>
	<circle id="XMLID_47_" class="st3" cx="104.7" cy="127.7" r="92.7"/>
</g>
<path id="XMLID_147_" class="st4" d="M166,37.5h-47c-4.1,0-7.5-3.4-7.5-7.5v-3c0-4.1,3.4-7.5,7.5-7.5h47c4.1,0,7.5,3.4,7.5,7.5v3
	C173.5,34.1,170.1,37.5,166,37.5z"/>
<path id="XMLID_68_" class="st5" d="M180.8,232h-77c-4.3,0-7.8-3.5-7.8-7.8V40.8c0-4.3,3.5-7.8,7.8-7.8h77c4.3,0,7.8,3.5,7.8,7.8
	v183.5C188.5,228.5,185,232,180.8,232z"/>
<path id="XMLID_66_" class="st5" d="M90.5,231.5h-66c-3.6,0-6.5-2.9-6.5-6.5V70c0-3.6,2.9-6.5,6.5-6.5h66c3.6,0,6.5,2.9,6.5,6.5v155
	C97,228.6,94.1,231.5,90.5,231.5z"/>
<g id="XMLID_146_">
	<g id="XMLID_165_">
		<path id="XMLID_177_" class="st6" d="M168.3,200.5h-5c-1.8,0-3.3-1.5-3.3-3.3v-17.5c0-1.8,1.5-3.3,3.3-3.3h5
			c1.8,0,3.3,1.5,3.3,3.3v17.5C171.5,199,170,200.5,168.3,200.5z"/>
		<path id="XMLID_176_" class="st6" d="M143.8,201h-5c-1.8,0-3.3-1.5-3.3-3.3v-17.5c0-1.8,1.5-3.3,3.3-3.3h5c1.8,0,3.3,1.5,3.3,3.3
			v17.5C147,199.5,145.5,201,143.8,201z"/>
		<path id="XMLID_175_" class="st6" d="M119.3,201h-5c-1.8,0-3.3-1.5-3.3-3.3v-17.5c0-1.8,1.5-3.3,3.3-3.3h5c1.8,0,3.3,1.5,3.3,3.3
			v17.5C122.5,199.5,121,201,119.3,201z"/>
		<path id="XMLID_174_" class="st6" d="M169.3,161h-5c-1.8,0-3.3-1.5-3.3-3.3v-17.5c0-1.8,1.5-3.3,3.3-3.3h5c1.8,0,3.3,1.5,3.3,3.3
			v17.5C172.5,159.5,171,161,169.3,161z"/>
		<path id="XMLID_173_" class="st6" d="M144.8,161.5h-5c-1.8,0-3.3-1.5-3.3-3.3v-17.5c0-1.8,1.5-3.3,3.3-3.3h5
			c1.8,0,3.3,1.5,3.3,3.3v17.5C148,160,146.5,161.5,144.8,161.5z"/>
		<path id="XMLID_172_" class="st6" d="M120.3,161.5h-5c-1.8,0-3.3-1.5-3.3-3.3v-17.5c0-1.8,1.5-3.3,3.3-3.3h5
			c1.8,0,3.3,1.5,3.3,3.3v17.5C123.5,160,122,161.5,120.3,161.5z"/>
		<path id="XMLID_171_" class="st6" d="M168.8,122h-5c-1.8,0-3.3-1.5-3.3-3.3v-17.5c0-1.8,1.5-3.3,3.3-3.3h5c1.8,0,3.3,1.5,3.3,3.3
			v17.5C172,120.5,170.5,122,168.8,122z"/>
		<path id="XMLID_170_" class="st6" d="M144.3,122.5h-5c-1.8,0-3.3-1.5-3.3-3.3v-17.5c0-1.8,1.5-3.3,3.3-3.3h5
			c1.8,0,3.3,1.5,3.3,3.3v17.5C147.5,121,146,122.5,144.3,122.5z"/>
		<path id="XMLID_169_" class="st6" d="M119.8,122.5h-5c-1.8,0-3.3-1.5-3.3-3.3v-17.5c0-1.8,1.5-3.3,3.3-3.3h5
			c1.8,0,3.3,1.5,3.3,3.3v17.5C123,121,121.5,122.5,119.8,122.5z"/>
		<path id="XMLID_168_" class="st6" d="M169.3,83h-5c-1.8,0-3.3-1.5-3.3-3.3V62.3c0-1.8,1.5-3.3,3.3-3.3h5c1.8,0,3.3,1.5,3.3,3.3
			v17.5C172.5,81.5,171,83,169.3,83z"/>
		<path id="XMLID_167_" class="st6" d="M144.8,83.5h-5c-1.8,0-3.3-1.5-3.3-3.3V62.8c0-1.8,1.5-3.3,3.3-3.3h5c1.8,0,3.3,1.5,3.3,3.3
			v17.5C148,82,146.5,83.5,144.8,83.5z"/>
		<path id="XMLID_166_" class="st6" d="M120.3,83.5h-5c-1.8,0-3.3-1.5-3.3-3.3V62.8c0-1.8,1.5-3.3,3.3-3.3h5c1.8,0,3.3,1.5,3.3,3.3
			v17.5C123.5,82,122,83.5,120.3,83.5z"/>
	</g>
</g>
<g id="XMLID_145_">
	<g id="XMLID_131_">
		<path id="XMLID_164_" class="st6" d="M83.3,218.5h-5c-1.8,0-3.3-1.5-3.3-3.3v-17.5c0-1.8,1.5-3.3,3.3-3.3h5c1.8,0,3.3,1.5,3.3,3.3
			v17.5C86.5,217,85,218.5,83.3,218.5z"/>
		<path id="XMLID_163_" class="st6" d="M58.8,219h-5c-1.8,0-3.3-1.5-3.3-3.3v-17.5c0-1.8,1.5-3.3,3.3-3.3h5c1.8,0,3.3,1.5,3.3,3.3
			v17.5C62,217.5,60.5,219,58.8,219z"/>
		<path id="XMLID_162_" class="st6" d="M34.3,219h-5c-1.8,0-3.3-1.5-3.3-3.3v-17.5c0-1.8,1.5-3.3,3.3-3.3h5c1.8,0,3.3,1.5,3.3,3.3
			v17.5C37.5,217.5,36,219,34.3,219z"/>
		<path id="XMLID_161_" class="st6" d="M84.3,182h-5c-1.8,0-3.3-1.5-3.3-3.3v-17.5c0-1.8,1.5-3.3,3.3-3.3h5c1.8,0,3.3,1.5,3.3,3.3
			v17.5C87.5,180.5,86,182,84.3,182z"/>
		<path id="XMLID_160_" class="st6" d="M59.8,182.5h-5c-1.8,0-3.3-1.5-3.3-3.3v-17.5c0-1.8,1.5-3.3,3.3-3.3h5c1.8,0,3.3,1.5,3.3,3.3
			v17.5C63,181,61.5,182.5,59.8,182.5z"/>
		<path id="XMLID_159_" class="st6" d="M35.3,182.5h-5c-1.8,0-3.3-1.5-3.3-3.3v-17.5c0-1.8,1.5-3.3,3.3-3.3h5c1.8,0,3.3,1.5,3.3,3.3
			v17.5C38.5,181,37,182.5,35.3,182.5z"/>
		<path id="XMLID_158_" class="st6" d="M84.8,143h-5c-1.8,0-3.3-1.5-3.3-3.3v-17.5c0-1.8,1.5-3.3,3.3-3.3h5c1.8,0,3.3,1.5,3.3,3.3
			v17.5C88,141.5,86.5,143,84.8,143z"/>
		<path id="XMLID_157_" class="st6" d="M60.3,143.5h-5c-1.8,0-3.3-1.5-3.3-3.3v-17.5c0-1.8,1.5-3.3,3.3-3.3h5c1.8,0,3.3,1.5,3.3,3.3
			v17.5C63.5,142,62,143.5,60.3,143.5z"/>
		<path id="XMLID_156_" class="st6" d="M35.8,143.5h-5c-1.8,0-3.3-1.5-3.3-3.3v-17.5c0-1.8,1.5-3.3,3.3-3.3h5c1.8,0,3.3,1.5,3.3,3.3
			v17.5C39,142,37.5,143.5,35.8,143.5z"/>
		<path id="XMLID_155_" class="st6" d="M84.8,106h-5c-1.8,0-3.3-1.5-3.3-3.3V85.3c0-1.8,1.5-3.3,3.3-3.3h5c1.8,0,3.3,1.5,3.3,3.3
			v17.5C88,104.5,86.5,106,84.8,106z"/>
		<path id="XMLID_154_" class="st6" d="M60.3,106.5h-5c-1.8,0-3.3-1.5-3.3-3.3V85.8c0-1.8,1.5-3.3,3.3-3.3h5c1.8,0,3.3,1.5,3.3,3.3
			v17.5C63.5,105,62,106.5,60.3,106.5z"/>
		<path id="XMLID_132_" class="st6" d="M35.8,106.5h-5c-1.8,0-3.3-1.5-3.3-3.3V85.8c0-1.8,1.5-3.3,3.3-3.3h5c1.8,0,3.3,1.5,3.3,3.3
			v17.5C39,105,37.5,106.5,35.8,106.5z"/>
	</g>
</g>
</svg>
