<?xml version="1.0" encoding="utf-8"?>
<!-- Generator: Adobe Illustrator 19.0.0, SVG Export Plug-In . SVG Version: 6.00 Build 0)  -->
<svg version="1.1" id="Layer_1" xmlns="http://www.w3.org/2000/svg" xmlns:xlink="http://www.w3.org/1999/xlink" x="0px" y="0px"
	 viewBox="0 0 214 207.8" style="enable-background:new 0 0 214 207.8;" xml:space="preserve">
<style type="text/css">
	.st0{fill:#EEEFF4;stroke:#5A5B5B;stroke-width:3;stroke-miterlimit:10;}
	.st1{fill:#82BAB7;stroke:#373D3F;stroke-width:4;stroke-miterlimit:10;}
	.st2{fill:#A1D3CF;}
	.st3{fill:#FFFFFF;stroke:#373D3F;stroke-width:3;stroke-miterlimit:10;}
	.st4{fill:#535E73;stroke:#373D3F;stroke-width:3;stroke-miterlimit:10;}
	.st5{fill:#CAF1FC;stroke:#373D3F;stroke-width:3;stroke-miterlimit:10;}
	.st6{fill:#EEEFF4;stroke:#373D3F;stroke-width:3;stroke-miterlimit:10;}
</style>
<g id="XMLID_64_">
	<g id="XMLID_1_">
		<g id="XMLID_50_">
			<circle id="XMLID_57_" class="st0" cx="106.2" cy="102.7" r="100.7"/>
		</g>
		<circle id="XMLID_46_" class="st1" cx="105.2" cy="102.7" r="100.7"/>
		<circle id="XMLID_47_" class="st2" cx="106.2" cy="102.7" r="92.7"/>
	</g>
	<ellipse id="XMLID_61_" class="st3" cx="106.5" cy="154.8" rx="59" ry="51.5"/>
	<circle id="XMLID_60_" class="st3" cx="106.5" cy="83.3" r="39"/>
	<path id="XMLID_58_" class="st4" d="M209,176.3H5c-1.9,0-3.5-1.6-3.5-3.5v-18c0-1.9,1.6-3.5,3.5-3.5h204c1.9,0,3.5,1.6,3.5,3.5v18
		C212.5,174.8,210.9,176.3,209,176.3z"/>
	<ellipse id="XMLID_63_" class="st5" cx="121.5" cy="90.2" rx="10.3" ry="9.5"/>
	<ellipse id="XMLID_62_" class="st5" cx="90.5" cy="90.2" rx="10.3" ry="9.5"/>
	<path id="XMLID_104_" class="st6" d="M100.5,86l1.9-1.7c2-1.7,4.9-1.8,7-0.1l2.1,1.8"/>
</g>
</svg>
