<?xml version="1.0" encoding="utf-8"?>
<!-- Generator: Adobe Illustrator 19.0.0, SVG Export Plug-In . SVG Version: 6.00 Build 0)  -->
<svg version="1.1" id="Layer_1" xmlns="http://www.w3.org/2000/svg" xmlns:xlink="http://www.w3.org/1999/xlink" x="0px" y="0px"
	 viewBox="0 0 223.7 229" style="enable-background:new 0 0 223.7 229;" xml:space="preserve">
<style type="text/css">
	.st0{fill:#A1D3CF;}
	.st1{fill:#EEEFF4;stroke:#5A5B5B;stroke-width:3;stroke-miterlimit:10;}
	.st2{fill:#EFD3BF;stroke:#5A5B5B;stroke-width:2;stroke-miterlimit:10;}
	.st3{fill:#FFFFFF;stroke:#5A5B5B;stroke-width:3;stroke-miterlimit:10;}
	.st4{fill:#C2C6C6;}
	.st5{fill:#DEE0E0;}
	.st6{fill:#D3AA46;stroke:#5A5B5B;stroke-width:3;stroke-miterlimit:10;}
</style>
<g id="XMLID_39_">
	<circle id="XMLID_47_" class="st0" cx="103.2" cy="126.8" r="92.7"/>
	<g id="XMLID_50_">
		<circle id="XMLID_57_" class="st1" cx="102.2" cy="126.8" r="100.7"/>
	</g>
	<path id="XMLID_48_" class="st2" d="M134.6,196.1"/>
	<path id="XMLID_45_" class="st3" d="M168.8,209.5H35.5c-3.3,0-6-2.7-6-6v-164c0-3.3,2.7-6,6-6h133.3c3.3,0,6,2.7,6,6v164
		C174.8,206.8,172.1,209.5,168.8,209.5z"/>
	<path id="XMLID_44_" class="st4" d="M153.6,122.2H51.7c-1.2,0-2.2-1-2.2-2.2v-1.3c0-1.2,1-2.2,2.2-2.2h101.9c1.2,0,2.2,1,2.2,2.2
		v1.3C155.9,121.1,154.8,122.2,153.6,122.2z"/>
	<path id="XMLID_43_" class="st4" d="M153.6,138.6H97.7c-1.2,0-2.2-1-2.2-2.2l0,0c0-1.2,1-2.2,2.2-2.2h55.9c1.2,0,2.2,1,2.2,2.2l0,0
		C155.9,137.6,154.8,138.6,153.6,138.6z"/>
	<path id="XMLID_90_" class="st4" d="M154.9,169.7H99c-1.2,0-2.2-1-2.2-2.2l0,0c0-1.2,1-2.2,2.2-2.2h55.9c1.2,0,2.2,1,2.2,2.2l0,0
		C157.1,168.7,156.1,169.7,154.9,169.7z"/>
	<path id="XMLID_42_" class="st4" d="M154.6,154H98.7c-1.2,0-2.2-1-2.2-2.2v0c0-1.2,1-2.2,2.2-2.2h55.9c1.2,0,2.2,1,2.2,2.2v0
		C156.8,153,155.8,154,154.6,154z"/>
	<path id="XMLID_41_" class="st3" d="M129.3,21.3h19.6c2.8,0,5.2,1.9,5.2,4.2v16.8c0,2.3-2.3,4.2-5.2,4.2H55.5
		c-2.8,0-5.2-1.9-5.2-4.2V25.5c0-2.3,2.3-4.2,6.2-4.2h19"/>
	<path id="XMLID_80_" class="st5" d="M153.8,103.8h-104c-2,0-3.7-1.7-3.7-3.7v-22c0-2,1.6-3.7,3.7-3.7h104c2,0,3.7,1.7,3.7,3.7v22
		C157.5,102.2,155.9,103.8,153.8,103.8z"/>
	<path id="XMLID_89_" class="st5" d="M82.5,175.5h-30c-2.4,0-4.3-1.9-4.3-4.3v-37.3c0-2.4,1.9-4.3,4.3-4.3h30c2.4,0,4.3,1.9,4.3,4.3
		v37.3C86.8,173.6,84.9,175.5,82.5,175.5z"/>
	<g id="XMLID_35_">
		<path id="XMLID_38_" class="st3" d="M142.9,178.3l-13.7,8.5l-4.4,2.7c-1.5,0.9-3.2-0.1-3.2-1.8l0.1-5.6l0.4-16.1"/>
		<path id="XMLID_52_" class="st3" d="M217.4,35.4l-2-1.2c-5-3.1-11.9-1-15.4,4.7l-77.3,126.8l20.3,12.4l74.8-122.6l0,0l0.3-0.6
			l2.2-3.6C223.7,45.5,222.4,38.4,217.4,35.4z"/>
		<polyline id="XMLID_51_" class="st3" points="221,40 221.7,48.4 143,177.9 133.8,172.3 		"/>
		<path id="XMLID_36_" class="st6" d="M217.4,35.4"/>
	</g>
	<path id="XMLID_40_" class="st3" d="M74.2,22.3v-15c0-3.2,2.6-5.8,5.8-5.8h44.7c3.2,0,5.8,2.6,5.8,5.8v15.2"/>
	<polyline id="XMLID_53_" class="st3" points="199.2,41.6 218.5,53.5 222,48.9 220.8,37.9 215.3,33.8 206.5,33.2 200,38.5 
		199.2,41.6 	"/>
	<path id="XMLID_55_" class="st3" d="M122.1,181.5l-0.3,4.3c-0.1,1.7,0.7,3.3,2.2,4.1l0,0l6.1-3.8l-8.1-5"/>
	<circle id="XMLID_33_" class="st3" cx="102.5" cy="11.5" r="5"/>
</g>
</svg>
